<?xml version="1.0" encoding="UTF-8" standalone="no"?>
<!-- Creator: CorelDRAW X7 -->

<svg
   xmlns:dc="http://purl.org/dc/elements/1.1/"
   xmlns:cc="http://creativecommons.org/ns#"
   xmlns:rdf="http://www.w3.org/1999/02/22-rdf-syntax-ns#"
   xmlns:svg="http://www.w3.org/2000/svg"
   xmlns="http://www.w3.org/2000/svg"
   xmlns:sodipodi="http://sodipodi.sourceforge.net/DTD/sodipodi-0.dtd"
   xmlns:inkscape="http://www.inkscape.org/namespaces/inkscape"
   xml:space="preserve"
   width="119.66mm"
   height="24.93mm"
   version="1.1"
   style="clip-rule:evenodd;fill-rule:evenodd;image-rendering:optimizeQuality;shape-rendering:geometricPrecision;text-rendering:geometricPrecision"
   viewBox="0 0 11966 2493"
   id="svg40"
   sodipodi:docname="logo.svg"
   inkscape:version="0.92.2 (unknown)"><metadata
     id="metadata44"><rdf:RDF><cc:Work
         rdf:about=""><dc:format>image/svg+xml</dc:format><dc:type
           rdf:resource="http://purl.org/dc/dcmitype/StillImage" /><dc:title></dc:title></cc:Work></rdf:RDF></metadata><sodipodi:namedview
     pagecolor="#ffffff"
     bordercolor="#666666"
     borderopacity="1"
     objecttolerance="10"
     gridtolerance="10"
     guidetolerance="10"
     inkscape:pageopacity="0"
     inkscape:pageshadow="2"
     inkscape:window-width="1920"
     inkscape:window-height="1023"
     id="namedview42"
     showgrid="false"
     fit-margin-top="0"
     fit-margin-left="0"
     fit-margin-right="0"
     fit-margin-bottom="0"
     inkscape:zoom="1.1893044"
     inkscape:cx="5.0592871"
     inkscape:cy="7.7881337"
     inkscape:window-x="1920"
     inkscape:window-y="0"
     inkscape:window-maximized="1"
     inkscape:current-layer="Слой_x0020_1" /><defs
     id="defs4"><style
       type="text/css"
       id="style2"><![CDATA[
    .fil0 {fill:#0678BE}
    .fil1 {fill:black;fill-rule:nonzero}
   ]]></style></defs><g
     id="Слой_x0020_1"
     transform="translate(-4496,-17075)"><metadata
       id="CorelCorpID_0Corel-Layer" /><path
       class="fil0"
       d="m 15221,17075 c 685,0 1241,558 1241,1247 0,688 -556,1246 -1241,1246 -686,0 -1242,-558 -1242,-1246 0,-689 556,-1247 1242,-1247 z m 325,724 c -76,-47 -149,-66 -221,-114 -45,-30 -107,-102 -160,-164 -10,99 -40,140 -75,169 -74,57 -120,75 -184,109 -54,28 -345,201 -345,574 0,372 315,646 664,646 349,0 652,-252 652,-635 0,-383 -284,-556 -331,-585 z m 6,1075 c -7,7 -74,53 -152,60 -78,7 -184,12 -248,-46 -10,-10 -7,-24 0,-30 8,-6 13,-11 22,-11 9,0 7,0 12,3 29,24 72,42 165,42 93,0 158,-26 187,-47 13,-10 19,-2 20,4 1,6 4,15 -6,25 z m -251,-122 c 16,-14 42,-38 67,-48 25,-10 37,-8 61,-8 23,0 48,1 65,13 17,11 27,37 33,52 6,14 0,23 -11,29 -10,5 -12,2 -22,-16 -10,-19 -19,-38 -70,-38 -50,0 -66,17 -91,38 -24,20 -33,27 -42,16 -9,-12 -6,-24 10,-38 z m 523,-275 c 0,45 -14,125 -49,176 -35,51 -57,69 -97,66 -53,-4 -157,-166 -223,-169 -84,-2 -267,175 -410,175 -87,0 -113,-13 -142,-32 -44,-30 -65,-76 -64,-140 1,-112 107,-218 240,-219 170,-1 287,167 373,166 72,-1 211,-143 279,-143 73,0 93,75 93,120 z M 4496,19565 h 921 c 686,0 1243,-558 1243,-1245 0,-687 -557,-1245 -1243,-1245 h -921 z m 649,-1822 h 276 c 324,0 590,265 590,587 0,326 -266,591 -590,591 h -276 z m 4160,1822 -527,-903 c 179,-166 295,-405 295,-671 0,-504 -411,-916 -914,-916 H 7111 v 2490 h 653 v -661 h 404 l 385,661 z M 7764,17627 h 404 c 199,0 358,159 358,358 0,199 -159,355 -358,355 h -404 z m 2516,-552 h -656 v 1508 c 0,547 434,982 981,982 540,0 981,-435 981,-982 v -1508 h -656 v 1498 c 0,179 -146,325 -325,325 -179,0 -325,-146 -325,-325 z m 1687,2221 c 0,149 113,269 262,269 149,0 262,-120 262,-269 0,-149 -113,-262 -262,-262 -149,0 -262,113 -262,262 z m 908,266 h 653 v -2487 h -653 z"
       id="path7"
       inkscape:connector-curvature="0"
       style="fill:#ffffff" /></g></svg>