<?xml version="1.0" encoding="UTF-8" standalone="no"?>
<!-- Created with Inkscape (http://www.inkscape.org/) -->

<svg
   xmlns:dc="http://purl.org/dc/elements/1.1/"
   xmlns:cc="http://creativecommons.org/ns#"
   xmlns:rdf="http://www.w3.org/1999/02/22-rdf-syntax-ns#"
   xmlns:svg="http://www.w3.org/2000/svg"
   xmlns="http://www.w3.org/2000/svg"
   xmlns:sodipodi="http://sodipodi.sourceforge.net/DTD/sodipodi-0.dtd"
   xmlns:inkscape="http://www.inkscape.org/namespaces/inkscape"
   width="32"
   height="32"
   id="svg2"
   version="1.1"
   inkscape:version="0.48.4 r9939"
   sodipodi:docname="Новый документ 1">
  <sodipodi:namedview
     id="base"
     pagecolor="#ffffff"
     bordercolor="#666666"
     borderopacity="1.0"
     inkscape:pageopacity="0.0"
     inkscape:pageshadow="2"
     inkscape:zoom="7.9195959"
     inkscape:cx="47.509766"
     inkscape:cy="1.8933331"
     inkscape:document-units="px"
     inkscape:current-layer="layer1"
     showgrid="false"
     fit-margin-top="0"
     fit-margin-left="0"
     fit-margin-right="0"
     fit-margin-bottom="0"
     inkscape:window-width="1863"
     inkscape:window-height="1059"
     inkscape:window-x="57"
     inkscape:window-y="21"
     inkscape:window-maximized="1">
    <sodipodi:guide
       id="guide3755"
       orientation="0,32"
       position="0,0" />
    <sodipodi:guide
       id="guide3757"
       orientation="-32,0"
       position="32,0" />
    <sodipodi:guide
       id="guide3759"
       orientation="0,-32"
       position="32,32" />
    <sodipodi:guide
       id="guide3761"
       orientation="32,0"
       position="0,32" />
  </sodipodi:namedview>
  <defs
     id="defs4">
    <clipPath
       clipPathUnits="userSpaceOnUse"
       id="clipPath4087">
      <rect
         y="-26.682693"
         x="7.3261194"
         height="58.615952"
         width="58.615952"
         id="rect4089"
         style="fill:#f15d58;fill-opacity:1;stroke:none" />
    </clipPath>
  </defs>
  <metadata
     id="metadata7">
    <rdf:RDF>
      <cc:Work
         rdf:about="">
        <dc:format>image/svg+xml</dc:format>
        <dc:type
           rdf:resource="http://purl.org/dc/dcmitype/StillImage" />
        <dc:title></dc:title>
      </cc:Work>
    </rdf:RDF>
  </metadata>
  <g
     transform="translate(-105.05586,-492.73767)"
     id="layer1"
     inkscape:groupmode="layer"
     inkscape:label="Layer 1">
    <rect
       y="492.73767"
       x="105.05586"
       height="32"
       width="32"
       id="rect2985"
       style="fill:#f15d58;fill-opacity:1;stroke:none" />
    <g
       id="text3763-0"
       style="font-size:40px;font-style:normal;font-variant:normal;font-weight:bold;font-stretch:normal;text-align:start;line-height:125%;letter-spacing:0px;word-spacing:0px;writing-mode:lr-tb;text-anchor:start;fill:#000000;fill-opacity:1;stroke:none;font-family:'Exo 2.0';-inkscape-font-specification:Sans Bold"
       transform="matrix(0.54592647,0,0,0.54592647,101.05634,507.30446)"
       clip-path="url(#clipPath4087)">
      <g
         id="g3804"
         transform="translate(14.719408,3.1074305)"
         style="opacity:0.38211394999999998;fill:#000000">
        <g
           id="g3806"
           style="fill:#000000;font-family:fontello;-inkscape-font-specification:fontello Bold">
          <path
             id="path3808"
             d="m 4.415,2.2378566 c 0,-1.86665352 0.2799997,-3.6399851 0.84,-5.32 L 288.09771,279.76057 c -0.56,1.68001 -0.84,3.45335 -0.84,5.32 z"
             inkscape:connector-curvature="0"
             style="fill:#000000" />
          <path
             id="path3810"
             d="m 5.255,-3.0821434 c 0.5599986,-1.6799817 1.2133312,-3.0533137 1.96,-4.12 L 290.05771,275.64057 c -0.74667,1.06669 -1.4,2.44002 -1.96,4.12 z"
             inkscape:connector-curvature="0"
             style="fill:#000000" />
          <path
             id="path3812"
             d="m 7.215,-7.2021434 c 0.7466631,-1.0666449 1.5999956,-2.0666439 2.56,-2.9999996 L 292.61771,272.64057 c -0.96,0.93336 -1.81333,1.93335 -2.56,3 z"
             inkscape:connector-curvature="0"
             style="fill:#000000" />
          <path
             id="path3814"
             d="m 9.775,-10.202143 c 0.959994,-0.933309 1.719993,-1.573308 2.28,-1.92 L 294.89771,270.72057 c -0.56,0.34669 -1.32,0.98669 -2.28,1.92 z"
             inkscape:connector-curvature="0"
             style="fill:#000000" />
          <path
             id="path3816"
             d="m 12.055,-12.122143 1.52,-0.92 282.84271,282.842713 -1.52,0.92 z"
             inkscape:connector-curvature="0"
             style="fill:#000000" />
          <path
             id="path3818"
             d="m 13.575,-13.042143 1.2,-0.6 282.84271,282.842713 -1.2,0.6 z"
             inkscape:connector-curvature="0"
             style="fill:#000000" />
          <path
             id="path3820"
             d="m 14.775,-13.642143 c 0.533322,-0.26664 0.933322,-0.479973 1.2,-0.64 L 298.81771,268.56057 c -0.26668,0.16003 -0.66668,0.37336 -1.2,0.64 z"
             inkscape:connector-curvature="0"
             style="fill:#000000" />
          <path
             id="path3822"
             d="m 15.975,-14.282143 1.16,-0.68 282.84271,282.842713 -1.16,0.68 z"
             inkscape:connector-curvature="0"
             style="fill:#000000" />
          <path
             id="path3824"
             d="m 17.135,-14.962143 c 0.506653,-0.293305 0.959986,-0.626638 1.36,-1 L 301.33771,266.88057 c -0.40001,0.37336 -0.85334,0.70669 -1.36,1 z"
             inkscape:connector-curvature="0"
             style="fill:#000000" />
          <path
             id="path3826"
             d="m 18.495,-15.962143 c 1.119985,-0.906637 1.786651,-2.413302 2,-4.52 L 303.33771,262.36057 c -0.21335,2.1067 -0.88001,3.61336 -2,4.52 z"
             inkscape:connector-curvature="0"
             style="fill:#000000" />
          <path
             id="path3828"
             d="m 20.495,-20.482143 c 1.123045,1.353839 2.068588,2.414778 2.836629,3.182819 L 306.17434,265.54339 c -0.76804,-0.76804 -1.71358,-1.82898 -2.83663,-3.18282 z"
             inkscape:connector-curvature="0"
             style="fill:#000000" />
          <path
             id="path3830"
             d="m 23.331629,-17.299324 c 0.563255,0.563255 1.031046,0.968982 1.403371,1.217181 L 307.57771,266.76057 c -0.37232,-0.2482 -0.84011,-0.65393 -1.40337,-1.21718 z"
             inkscape:connector-curvature="0"
             style="fill:#000000" />
          <path
             id="path3832"
             d="m 24.735,-16.082143 c 0.666646,0.453362 1.653311,0.973362 2.96,1.56 L 310.53771,268.32057 c -1.30669,-0.58664 -2.29335,-1.10664 -2.96,-1.56 z"
             inkscape:connector-curvature="0"
             style="fill:#000000" />
          <path
             id="path3834"
             d="m 27.695,-14.522143 c 1.306642,0.586694 2.279974,1.080027 2.92,1.48 L 313.45771,269.80057 c -0.64002,-0.39997 -1.61336,-0.89331 -2.92,-1.48 z"
             inkscape:connector-curvature="0"
             style="fill:#000000" />
          <path
             id="path3836"
             d="m 30.615,-13.042143 c 0.50664,0.293359 0.986639,0.600026 1.44,0.92 L 314.89771,270.72057 c -0.45336,-0.31997 -0.93336,-0.62664 -1.44,-0.92 z"
             inkscape:connector-curvature="0"
             style="fill:#000000" />
          <path
             id="path3838"
             d="m 32.055,-12.122143 c 0.453305,0.320025 1.173304,0.973358 2.16,1.96 L 317.05771,272.68057 c -0.98669,-0.98664 -1.70669,-1.63998 -2.16,-1.96 z"
             inkscape:connector-curvature="0"
             style="fill:#000000" />
          <path
             id="path3840"
             d="m 34.215,-10.162143 c 0.986636,0.986689 1.826635,2.0000213 2.52,3.0399996 L 319.57771,275.72057 c -0.69336,-1.03998 -1.53336,-2.05331 -2.52,-3.04 z"
             inkscape:connector-curvature="0"
             style="fill:#000000" />
          <path
             id="path3842"
             d="m 36.735,-7.1221434 c 0.6933,1.0400196 1.306633,2.4400182 1.84,4.2 L 321.41771,279.92057 c -0.53336,-1.75998 -1.1467,-3.15998 -1.84,-4.2 z"
             inkscape:connector-curvature="0"
             style="fill:#000000" />
          <path
             id="path3844"
             d="m 38.575,-2.9221434 c 0.533299,1.7600147 0.813298,3.58667952 0.84,5.48 L 322.25771,285.40057 c -0.0267,-1.89332 -0.3067,-3.71999 -0.84,-5.48 z"
             inkscape:connector-curvature="0"
             style="fill:#000000" />
          <path
             id="path3846"
             d="m 39.415,2.5578566 c -3.5e-5,4.960006 -1.693367,9.0266684 -5.08,12.2000004 L 317.17771,297.60057 c 3.38664,-3.17333 5.07997,-7.23999 5.08,-12.2 z"
             inkscape:connector-curvature="0"
             style="fill:#000000" />
          <path
             id="path3848"
             d="m 34.335,14.757857 c -3.386693,3.173329 -7.480022,4.759994 -12.28,4.76 L 304.89771,302.36057 c 4.79998,-10e-6 8.89331,-1.58667 12.28,-4.76 z"
             inkscape:connector-curvature="0"
             style="fill:#000000" />
          <path
             id="path3850"
             d="m 22.055,19.517857 c -3.093348,-6e-6 -5.973345,-0.733339 -8.64,-2.2 L 296.25771,300.16057 c 2.66666,1.46666 5.54665,2.19999 8.64,2.2 z"
             inkscape:connector-curvature="0"
             style="fill:#000000" />
          <path
             id="path3852"
             d="M 13.415,17.317857 C 11.969214,16.522675 10.668444,15.547207 9.5126892,14.391453 L 292.3554,297.23417 c 1.15576,1.15575 2.45653,2.13122 3.90231,2.9264 z"
             inkscape:connector-curvature="0"
             style="fill:#000000" />
          <path
             id="path3854"
             d="M 9.5126892,14.391453 C 8.5367178,13.415481 7.664155,12.31095 6.895,11.077857 L 289.73771,293.92057 c 0.76916,1.23309 1.64172,2.33762 2.61769,3.3136 z"
             inkscape:connector-curvature="0"
             style="fill:#000000" />
          <path
             id="path3856"
             d="M 6.895,11.077857 C 5.2149992,8.3845284 4.3883333,5.4378647 4.415,2.2378566 L 287.25771,285.08057 c -0.0267,3.20001 0.8,6.14667 2.48,8.84 z"
             inkscape:connector-curvature="0"
             style="fill:#000000" />
          <path
             id="path3858"
             d="m 12.015,8.2778566 c -0.04389,1.3822764 0.327438,2.4666824 1.113976,3.2532214 L 295.97169,294.37379 c -0.78654,-0.78654 -1.15786,-1.87094 -1.11398,-3.25322 z"
             inkscape:connector-curvature="0"
             style="fill:#000000" />
          <path
             id="path3860"
             d="m 13.128976,11.531078 c 0.169412,0.169412 0.358087,0.325005 0.566024,0.466779 L 296.53771,294.84057 c -0.20793,-0.14177 -0.39661,-0.29737 -0.56602,-0.46678 z"
             inkscape:connector-curvature="0"
             style="fill:#000000" />
          <path
             id="path3862"
             d="m 13.695,11.997857 c 0.826657,0.560001 2.079989,0.84 3.76,0.84 L 300.29771,295.68057 c -1.68001,0 -2.93334,-0.28 -3.76,-0.84 z"
             inkscape:connector-curvature="0"
             style="fill:#000000" />
          <path
             id="path3864"
             d="m 17.455,12.837857 c 1.093319,0 2.399985,-0.399999 3.92,-1.2 L 304.21771,294.48057 c -1.52001,0.8 -2.82668,1.2 -3.92,1.2 z"
             inkscape:connector-curvature="0"
             style="fill:#000000" />
          <path
             id="path3866"
             d="m 21.375,11.637857 c 1.519981,-0.799998 2.91998,-1.57333 4.2,-2.3200004 L 308.41771,292.16057 c -1.28002,0.74667 -2.68002,1.52 -4.2,2.32 z"
             inkscape:connector-curvature="0"
             style="fill:#000000" />
          <path
             id="path3868"
             d="m 25.575,9.3178566 c 1.279978,-0.7466617 2.21331,-1.1066614 2.8,-1.08 L 311.21771,291.08057 c -0.58669,-0.0267 -1.52002,0.33334 -2.8,1.08 z"
             inkscape:connector-curvature="0"
             style="fill:#000000" />
          <path
             id="path3870"
             d="m 28.375,8.2378566 c 0.613309,5.3e-6 1.653308,0.7333379 3.12,2.2000004 L 314.33771,293.28057 c -1.46669,-1.46666 -2.50669,-2.2 -3.12,-2.2 z"
             inkscape:connector-curvature="0"
             style="fill:#000000" />
          <path
             id="path3872"
             d="m 31.495,10.437857 c 1.18e-4,1.18e-4 2.36e-4,2.36e-4 3.53e-4,3.54e-4 L 314.33807,293.28092 c -1.2e-4,-1.1e-4 -2.4e-4,-2.3e-4 -3.6e-4,-3.5e-4 z"
             inkscape:connector-curvature="0"
             style="fill:#000000" />
          <path
             id="path3874"
             d="m 31.495353,10.438211 c 1.466435,1.466434 2.399649,2.212982 2.799647,2.239646 L 317.13771,295.52057 c -0.4,-0.0267 -1.33321,-0.77321 -2.79964,-2.23965 z"
             inkscape:connector-curvature="0"
             style="fill:#000000" />
          <path
             id="path3876"
             d="m 34.295,12.677857 c 0.533303,0.02667 0.986636,-0.09333 1.36,-0.36 L 318.49771,295.16057 c -0.37336,0.26667 -0.82669,0.38667 -1.36,0.36 z"
             inkscape:connector-curvature="0"
             style="fill:#000000" />
          <path
             id="path3878"
             d="m 35.655,12.317857 c 0.373302,-0.266666 0.786635,-0.733332 1.24,-1.4 L 319.73771,293.76057 c -0.45336,0.66667 -0.8667,1.13333 -1.24,1.4 z"
             inkscape:connector-curvature="0"
             style="fill:#000000" />
          <path
             id="path3880"
             d="m 36.895,10.917857 c 0.879967,-1.3066632 1.319966,-2.8666616 1.32,-4.6800004 L 321.05771,289.08057 c -3e-5,1.81334 -0.44003,3.37334 -1.32,4.68 z"
             inkscape:connector-curvature="0"
             style="fill:#000000" />
          <path
             id="path3882"
             d="m 38.215,6.2378566 c -3.4e-5,-0.7733253 -0.200034,-1.5066579 -0.6,-2.2 L 320.45771,286.88057 c 0.39997,0.69334 0.59997,1.42667 0.6,2.2 z"
             inkscape:connector-curvature="0"
             style="fill:#000000" />
          <path
             id="path3884"
             d="M 37.615,4.0378566 C 37.514999,3.8645385 37.400836,3.7137165 37.27251,3.5853905 L 320.11522,286.4281 c 0.12833,0.12833 0.24249,0.27915 0.34249,0.45247 z"
             inkscape:connector-curvature="0"
             style="fill:#000000" />
          <path
             id="path3886"
             d="M 37.27251,3.5853905 C 36.887494,3.2003751 36.374991,3.017864 35.735,3.0378566 L 318.57771,285.88057 c 0.63999,-0.02 1.1525,0.16252 1.53751,0.54753 z"
             inkscape:connector-curvature="0"
             style="fill:#000000" />
          <path
             id="path3888"
             d="m 35.735,3.0378566 c -0.586697,1.05e-5 -1.813363,0.6266765 -3.68,1.88 L 314.89771,287.76057 c 1.86664,-1.25332 3.09331,-1.87999 3.68,-1.88 z"
             inkscape:connector-curvature="0"
             style="fill:#000000" />
          <path
             id="path3890"
             d="m 32.055,4.9178566 c -1.866692,1.2533407 -3.120025,1.89334 -3.76,1.92 L 311.13771,289.68057 c 0.63998,-0.0267 1.89331,-0.66666 3.76,-1.92 z"
             inkscape:connector-curvature="0"
             style="fill:#000000" />
          <path
             id="path3892"
             d="m 28.295,6.8378566 c -0.58669,6.7e-6 -1.400023,-0.3733263 -2.44,-1.12 L 308.69771,288.56057 c 1.03998,0.74667 1.85331,1.12001 2.44,1.12 z"
             inkscape:connector-curvature="0"
             style="fill:#000000" />
          <path
             id="path3894"
             d="m 25.855,5.7178566 c -1.04002,-0.7466581 -2.213353,-1.4799907 -3.52,-2.2 L 305.17771,286.36057 c 1.30665,0.72001 2.47998,1.45334 3.52,2.2 z"
             inkscape:connector-curvature="0"
             style="fill:#000000" />
          <path
             id="path3896"
             d="m 22.335,3.5178566 c -1.306683,-0.7199893 -2.626682,-1.0933222 -3.96,-1.12 L 301.21771,285.24057 c 1.33332,0.0267 2.65332,0.40001 3.96,1.12 z"
             inkscape:connector-curvature="0"
             style="fill:#000000" />
          <path
             id="path3898"
             d="m 18.375,2.3978566 c -1.733346,0.026678 -3.213344,0.6266772 -4.44,1.8 L 296.77771,287.04057 c 1.22666,-1.17332 2.70666,-1.77332 4.44,-1.8 z"
             inkscape:connector-curvature="0"
             style="fill:#000000" />
          <path
             id="path3900"
             d="m 13.935,4.1978566 c -1.226675,1.1733415 -1.866674,2.5333401 -1.92,4.08 L 294.85771,291.12057 c 0.0533,-1.54666 0.69333,-2.90666 1.92,-4.08 z"
             inkscape:connector-curvature="0"
             style="fill:#000000" />
          <path
             id="path3902"
             d="m 20.215,15.477857 c -0.293343,0.244438 -0.317793,0.488877 -0.07335,0.733319 L 302.98436,299.05389 c -0.24444,-0.24444 -0.21999,-0.48888 0.0734,-0.73332 z"
             inkscape:connector-curvature="0"
             style="fill:#000000" />
          <path
             id="path3904"
             d="m 20.14165,16.211176 c 0.02223,0.02223 0.04668,0.04445 0.07335,0.06668 L 303.05771,299.12057 c -0.0267,-0.0222 -0.0511,-0.0444 -0.0734,-0.0667 z"
             inkscape:connector-curvature="0"
             style="fill:#000000" />
          <path
             id="path3906"
             d="m 20.215,16.277857 c 1.22665,1.119996 3.426647,1.533329 6.6,1.24 L 309.65771,300.36057 c -3.17335,0.29333 -5.37335,-0.12 -6.6,-1.24 z"
             inkscape:connector-curvature="0"
             style="fill:#000000" />
          <path
             id="path3908"
             d="m 26.815,17.517857 c 0.61331,-0.05334 1.25331,-0.200004 1.92,-0.44 L 311.57771,299.92057 c -0.66669,0.24 -1.30669,0.38666 -1.92,0.44 z"
             inkscape:connector-curvature="0"
             style="fill:#000000" />
          <path
             id="path3910"
             d="m 28.735,17.077857 c 0.666642,-0.240004 1.159974,-0.480003 1.48,-0.72 L 313.05771,299.20057 c -0.32002,0.24 -0.81336,0.48 -1.48,0.72 z"
             inkscape:connector-curvature="0"
             style="fill:#000000" />
          <path
             id="path3912"
             d="m 30.215,16.357857 0.64,-0.48 282.84271,282.842713 -0.64,0.48 z"
             inkscape:connector-curvature="0"
             style="fill:#000000" />
          <path
             id="path3914"
             d="m 30.855,15.877857 c 0.10664,-0.08 0.159973,-0.293336 0.16,-0.64 L 313.85771,298.08057 c -2e-5,0.34666 -0.0534,0.56 -0.16,0.64 z"
             inkscape:connector-curvature="0"
             style="fill:#000000" />
          <path
             id="path3916"
             d="m 31.015,15.237857 c -0.02484,-0.09931 -0.05994,-0.171648 -0.105316,-0.217023 L 313.7524,297.86355 c 0.0454,0.0454 0.0805,0.11771 0.10531,0.21702 z"
             inkscape:connector-curvature="0"
             style="fill:#000000" />
          <path
             id="path3918"
             d="m 30.909684,15.020834 c -0.10084,-0.10084 -0.2524,-0.0685 -0.454684,0.09702 L 313.29771,297.96057 c 0.20229,-0.16552 0.35385,-0.19786 0.45469,-0.097 z"
             inkscape:connector-curvature="0"
             style="fill:#000000" />
          <path
             id="path3920"
             d="m 30.455,15.117857 c -1.093358,0.85333 -2.74669,1.279997 -4.96,1.28 L 308.33771,299.24057 c 2.21331,0 3.86664,-0.42667 4.96,-1.28 z"
             inkscape:connector-curvature="0"
             style="fill:#000000" />
          <path
             id="path3922"
             d="m 25.495,16.397857 c -2.000019,-3e-6 -3.466684,-0.373336 -4.4,-1.12 L 303.93771,298.12057 c 0.93332,0.74666 2.39998,1.12 4.4,1.12 z"
             inkscape:connector-curvature="0"
             style="fill:#000000" />
          <path
             id="path3924"
             d="m 21.095,15.277857 c -0.08002,-0.05333 -0.186683,-0.08 -0.32,-0.08 L 303.61771,298.04057 c 0.13332,0 0.23998,0.0267 0.32,0.08 z"
             inkscape:connector-curvature="0"
             style="fill:#000000" />
          <path
             id="path3926"
             d="m 20.775,15.197857 c -0.13335,-2e-6 -0.320016,0.09333 -0.56,0.28 L 303.05771,298.32057 c 0.23999,-0.18667 0.42665,-0.28 0.56,-0.28 z"
             inkscape:connector-curvature="0"
             style="fill:#000000" />
          <path
             id="path3928"
             d="m 23.815,13.397857 c 0.0046,0.0052 0.0092,0.0102 0.014,0.01498 L 306.67171,296.25555 c -0.005,-0.005 -0.009,-0.01 -0.014,-0.015 z"
             inkscape:connector-curvature="0"
             style="fill:#000000" />
          <path
             id="path3930"
             d="m 23.829,13.412834 c 0.190982,0.190982 0.559649,0.03933 1.106,-0.454977 L 307.77771,295.80057 c -0.54635,0.4943 -0.91502,0.64596 -1.106,0.45498 z"
             inkscape:connector-curvature="0"
             style="fill:#000000" />
          <path
             id="path3932"
             d="m 24.935,12.957857 c 0.05331,-0.02667 0.159979,-0.106666 0.32,-0.24 L 308.09771,295.56057 c -0.16002,0.13333 -0.26669,0.21333 -0.32,0.24 z"
             inkscape:connector-curvature="0"
             style="fill:#000000" />
          <path
             id="path3934"
             d="m 25.255,12.717857 0.32,-0.28 282.84271,282.842713 -0.32,0.28 z"
             inkscape:connector-curvature="0"
             style="fill:#000000" />
          <path
             id="path3936"
             d="m 25.575,12.437857 c 0.05331,-0.05333 0.159979,-0.119999 0.32,-0.2 L 308.73771,295.08057 c -0.16002,0.08 -0.26669,0.14667 -0.32,0.2 z"
             inkscape:connector-curvature="0"
             style="fill:#000000" />
          <path
             id="path3938"
             d="m 25.895,12.237857 c 0.159978,-0.08 0.293312,-0.133332 0.4,-0.16 L 309.13771,294.92057 c -0.10669,0.0267 -0.24002,0.08 -0.4,0.16 z"
             inkscape:connector-curvature="0"
             style="fill:#000000" />
          <path
             id="path3940"
             d="m 26.295,12.077857 c 0.106645,-0.02667 0.266644,-0.05333 0.48,-0.08 L 309.61771,294.84057 c -0.21335,0.0267 -0.37335,0.0533 -0.48,0.08 z"
             inkscape:connector-curvature="0"
             style="fill:#000000" />
          <path
             id="path3942"
             d="m 26.775,11.997857 c 0.213311,-0.02667 0.413311,-0.04 0.6,-0.04 L 310.21771,294.80057 c -0.18669,0 -0.38669,0.0133 -0.6,0.04 z"
             inkscape:connector-curvature="0"
             style="fill:#000000" />
          <path
             id="path3944"
             d="m 27.375,11.957857 c 0.426643,10e-7 0.77331,0.05333 1.04,0.16 L 311.25771,294.96057 c -0.26669,-0.10667 -0.61335,-0.16 -1.04,-0.16 z"
             inkscape:connector-curvature="0"
             style="fill:#000000" />
          <path
             id="path3946"
             d="m 28.415,12.117857 c 0.228576,0.09144 0.388584,0.182878 0.480022,0.274317 L 311.73773,295.23489 c -0.0914,-0.0914 -0.25144,-0.18288 -0.48002,-0.27432 z"
             inkscape:connector-curvature="0"
             style="fill:#000000" />
          <path
             id="path3948"
             d="m 28.895022,12.392174 c 0.01523,0.01523 0.02855,0.03045 0.03998,0.04568 L 311.77771,295.28057 c -0.0114,-0.0152 -0.0248,-0.0305 -0.04,-0.0457 z"
             inkscape:connector-curvature="0"
             style="fill:#000000" />
          <path
             id="path3950"
             d="m 28.935,12.437857 c 0.07998,0.106667 0.173309,0.293334 0.28,0.56 L 312.05771,295.84057 c -0.10669,-0.26667 -0.20002,-0.45333 -0.28,-0.56 z"
             inkscape:connector-curvature="0"
             style="fill:#000000" />
          <path
             id="path3952"
             d="m 29.215,12.997857 c 0.08886,0.159987 0.165891,0.272575 0.231079,0.337762 L 312.28879,296.17833 c -0.0652,-0.0652 -0.14221,-0.17777 -0.23108,-0.33776 z"
             inkscape:connector-curvature="0"
             style="fill:#000000" />
          <path
             id="path3954"
             d="m 29.446079,13.335619 c 0.0326,0.0326 0.06224,0.05335 0.08892,0.06224 L 312.37771,296.24057 c -0.0267,-0.009 -0.0563,-0.0296 -0.0889,-0.0622 z"
             inkscape:connector-curvature="0"
             style="fill:#000000" />
          <path
             id="path3956"
             d="m 29.535,13.397857 c 0.07998,0.02667 0.173308,0.02667 0.28,0 L 312.65771,296.24057 c -0.10669,0.0267 -0.20002,0.0267 -0.28,0 z"
             inkscape:connector-curvature="0"
             style="fill:#000000" />
          <path
             id="path3958"
             d="m 29.815,13.397857 c 0.319974,-0.186667 0.413307,-0.453333 0.28,-0.8 L 312.93771,295.44057 c 0.13331,0.34667 0.04,0.61333 -0.28,0.8 z"
             inkscape:connector-curvature="0"
             style="fill:#000000" />
          <path
             id="path3960"
             d="M 30.095,12.597857 C 29.90952,12.062083 29.692207,11.669624 29.443062,11.420478 L 312.28577,294.26319 c 0.24915,0.24915 0.46646,0.64161 0.65194,1.17738 z"
             inkscape:connector-curvature="0"
             style="fill:#000000" />
          <path
             id="path3962"
             d="M 29.443062,11.420478 C 29.369794,11.347211 29.293773,11.286337 29.215,11.237857 L 312.05771,294.08057 c 0.0788,0.0485 0.1548,0.10935 0.22806,0.18262 z"
             inkscape:connector-curvature="0"
             style="fill:#000000" />
          <path
             id="path3964"
             d="m 29.215,11.237857 c -0.320025,-0.239998 -0.893357,-0.359998 -1.72,-0.36 L 310.33771,293.72057 c 0.82665,0 1.39998,0.12 1.72,0.36 z"
             inkscape:connector-curvature="0"
             style="fill:#000000" />
          <path
             id="path3966"
             d="m 27.495,10.877857 c -0.693356,2e-6 -1.240022,0.08 -1.64,0.24 L 308.69771,293.96057 c 0.39998,-0.16 0.94665,-0.24 1.64,-0.24 z"
             inkscape:connector-curvature="0"
             style="fill:#000000" />
          <path
             id="path3968"
             d="m 25.855,11.117857 c -0.453354,0.186668 -1.04002,0.613335 -1.76,1.28 L 306.93771,295.24057 c 0.71998,-0.66667 1.30665,-1.09333 1.76,-1.28 z"
             inkscape:connector-curvature="0"
             style="fill:#000000" />
          <path
             id="path3970"
             d="m 24.095,12.397857 c -0.400019,0.32 -0.493353,0.653333 -0.28,1 L 306.65771,296.24057 c -0.21335,-0.34667 -0.12002,-0.68 0.28,-1 z"
             inkscape:connector-curvature="0"
             style="fill:#000000" />
        </g>
        <path
           inkscape:connector-curvature="0"
           id="path3768-7"
           style="fill:#000000;font-family:fontello;-inkscape-font-specification:fontello Bold"
           d="m 4.415,2.2378566 c 0,-1.86665352 0.2799997,-3.6399851 0.84,-5.32 0.5599986,-1.6799817 1.2133312,-3.0533137 1.96,-4.12 0.7466631,-1.0666449 1.5999956,-2.0666439 2.56,-2.9999996 0.959994,-0.933309 1.719993,-1.573308 2.28,-1.92 l 1.52,-0.92 1.2,-0.6 c 0.533322,-0.26664 0.933322,-0.479973 1.2,-0.64 l 1.16,-0.68 c 0.506653,-0.293305 0.959986,-0.626638 1.36,-1 1.119985,-0.906637 1.786651,-2.413302 2,-4.52 1.946649,2.346698 3.359981,3.813363 4.24,4.4 0.666646,0.453362 1.653311,0.973362 2.96,1.56 1.306642,0.586694 2.279974,1.080027 2.92,1.48 0.50664,0.293359 0.986639,0.600026 1.44,0.92 0.453305,0.320025 1.173304,0.973358 2.16,1.96 0.986636,0.986689 1.826635,2.0000213 2.52,3.0399996 0.6933,1.0400196 1.306633,2.4400182 1.84,4.2 0.533299,1.7600147 0.813298,3.58667952 0.84,5.48 -3.5e-5,4.960006 -1.693367,9.0266684 -5.08,12.2000004 -3.386693,3.173329 -7.480022,4.759994 -12.28,4.76 -3.093348,-6e-6 -5.973345,-0.733339 -8.64,-2.2 -2.666673,-1.466669 -4.8400042,-3.546667 -6.52,-6.24 C 5.2149992,8.3845284 4.3883333,5.4378647 4.415,2.2378566 m 7.6,6.04 c -0.05334,1.6800036 0.506659,2.9200024 1.68,3.7200004 0.826657,0.560001 2.079989,0.84 3.76,0.84 1.093319,0 2.399985,-0.399999 3.92,-1.2 1.519981,-0.799998 2.91998,-1.57333 4.2,-2.3200004 1.279978,-0.7466617 2.21331,-1.1066614 2.8,-1.08 0.613309,5.3e-6 1.653308,0.7333379 3.12,2.2000004 1.466638,1.466668 2.39997,2.213334 2.8,2.24 0.533303,0.02667 0.986636,-0.09333 1.36,-0.36 0.373302,-0.266666 0.786635,-0.733332 1.24,-1.4 0.879967,-1.3066632 1.319966,-2.8666616 1.32,-4.6800004 -3.4e-5,-0.7733253 -0.200034,-1.5066579 -0.6,-2.2 -0.400033,-0.6933232 -1.026699,-1.0266562 -1.88,-1 -0.586697,1.05e-5 -1.813363,0.6266765 -3.68,1.88 -1.866692,1.2533407 -3.120025,1.89334 -3.76,1.92 -0.58669,6.7e-6 -1.400023,-0.3733263 -2.44,-1.12 -1.04002,-0.7466581 -2.213353,-1.4799907 -3.52,-2.2 -1.306683,-0.7199893 -2.626682,-1.0933222 -3.96,-1.12 -1.733346,0.026678 -3.213344,0.6266772 -4.44,1.8 -1.226675,1.1733415 -1.866674,2.5333401 -1.92,4.08 m 8.2,7.2000004 c -0.320016,0.266664 -0.320016,0.53333 0,0.8 1.22665,1.119996 3.426647,1.533329 6.6,1.24 0.61331,-0.05334 1.25331,-0.200004 1.92,-0.44 0.666642,-0.240004 1.159974,-0.480003 1.48,-0.72 l 0.64,-0.48 c 0.10664,-0.08 0.159973,-0.293336 0.16,-0.64 -0.08003,-0.320002 -0.266693,-0.360002 -0.56,-0.12 -1.093358,0.85333 -2.74669,1.279997 -4.96,1.28 -2.000019,-3e-6 -3.466684,-0.373336 -4.4,-1.12 -0.08002,-0.05333 -0.186683,-0.08 -0.32,-0.08 -0.13335,-2e-6 -0.320016,0.09333 -0.56,0.28 m 3.6,-2.08 c 0.186647,0.213333 0.55998,0.06667 1.12,-0.44 0.05331,-0.02667 0.159979,-0.106666 0.32,-0.24 l 0.32,-0.28 c 0.05331,-0.05333 0.159979,-0.119999 0.32,-0.2 0.159978,-0.08 0.293312,-0.133332 0.4,-0.16 0.106645,-0.02667 0.266644,-0.05333 0.48,-0.08 0.213311,-0.02667 0.413311,-0.04 0.6,-0.04 0.426643,10e-7 0.77331,0.05333 1.04,0.16 0.266642,0.106668 0.439976,0.213334 0.52,0.32 0.07998,0.106667 0.173309,0.293334 0.28,0.56 0.133308,0.24 0.239975,0.373333 0.32,0.4 0.07998,0.02667 0.173308,0.02667 0.28,0 0.319974,-0.186667 0.413307,-0.453333 0.28,-0.8 -0.240025,-0.693332 -0.533359,-1.146665 -0.88,-1.36 -0.320025,-0.239998 -0.893357,-0.359998 -1.72,-0.36 -0.693356,2e-6 -1.240022,0.08 -1.64,0.24 -0.453354,0.186668 -1.04002,0.613335 -1.76,1.28 -0.400019,0.32 -0.493353,0.653333 -0.28,1" />
      </g>
    </g>
    <g
       id="text3763"
       style="font-size:40px;font-style:normal;font-variant:normal;font-weight:bold;font-stretch:normal;text-align:start;line-height:125%;letter-spacing:0px;word-spacing:0px;writing-mode:lr-tb;text-anchor:start;fill:#ffffff;fill-opacity:1;stroke:none;font-family:'Exo 2.0';-inkscape-font-specification:Sans Bold"
       transform="matrix(0.54592647,0,0,0.54592647,109.09205,509.00089)">
      <path
         inkscape:connector-curvature="0"
         id="path3768"
         style="fill:#ffffff;font-family:fontello;-inkscape-font-specification:fontello Bold"
         d="m 4.415,2.2378566 c 0,-1.86665352 0.2799997,-3.6399851 0.84,-5.32 0.5599986,-1.6799817 1.2133312,-3.0533137 1.96,-4.12 0.7466631,-1.0666449 1.5999956,-2.0666439 2.56,-2.9999996 0.959994,-0.933309 1.719993,-1.573308 2.28,-1.92 l 1.52,-0.92 1.2,-0.6 c 0.533322,-0.26664 0.933322,-0.479973 1.2,-0.64 l 1.16,-0.68 c 0.506653,-0.293305 0.959986,-0.626638 1.36,-1 1.119985,-0.906637 1.786651,-2.413302 2,-4.52 1.946649,2.346698 3.359981,3.813363 4.24,4.4 0.666646,0.453362 1.653311,0.973362 2.96,1.56 1.306642,0.586694 2.279974,1.080027 2.92,1.48 0.50664,0.293359 0.986639,0.600026 1.44,0.92 0.453305,0.320025 1.173304,0.973358 2.16,1.96 0.986636,0.986689 1.826635,2.0000213 2.52,3.0399996 0.6933,1.0400196 1.306633,2.4400182 1.84,4.2 0.533299,1.7600147 0.813298,3.58667952 0.84,5.48 -3.5e-5,4.960006 -1.693367,9.0266684 -5.08,12.2000004 -3.386693,3.173329 -7.480022,4.759994 -12.28,4.76 -3.093348,-6e-6 -5.973345,-0.733339 -8.64,-2.2 -2.666673,-1.466669 -4.8400042,-3.546667 -6.52,-6.24 C 5.2149992,8.3845284 4.3883333,5.4378647 4.415,2.2378566 m 7.6,6.04 c -0.05334,1.6800036 0.506659,2.9200024 1.68,3.7200004 0.826657,0.560001 2.079989,0.84 3.76,0.84 1.093319,0 2.399985,-0.399999 3.92,-1.2 1.519981,-0.799998 2.91998,-1.57333 4.2,-2.3200004 1.279978,-0.7466617 2.21331,-1.1066614 2.8,-1.08 0.613309,5.3e-6 1.653308,0.7333379 3.12,2.2000004 1.466638,1.466668 2.39997,2.213334 2.8,2.24 0.533303,0.02667 0.986636,-0.09333 1.36,-0.36 0.373302,-0.266666 0.786635,-0.733332 1.24,-1.4 0.879967,-1.3066632 1.319966,-2.8666616 1.32,-4.6800004 -3.4e-5,-0.7733253 -0.200034,-1.5066579 -0.6,-2.2 -0.400033,-0.6933232 -1.026699,-1.0266562 -1.88,-1 -0.586697,1.05e-5 -1.813363,0.6266765 -3.68,1.88 -1.866692,1.2533407 -3.120025,1.89334 -3.76,1.92 -0.58669,6.7e-6 -1.400023,-0.3733263 -2.44,-1.12 -1.04002,-0.7466581 -2.213353,-1.4799907 -3.52,-2.2 -1.306683,-0.7199893 -2.626682,-1.0933222 -3.96,-1.12 -1.733346,0.026678 -3.213344,0.6266772 -4.44,1.8 -1.226675,1.1733415 -1.866674,2.5333401 -1.92,4.08 m 8.2,7.2000004 c -0.320016,0.266664 -0.320016,0.53333 0,0.8 1.22665,1.119996 3.426647,1.533329 6.6,1.24 0.61331,-0.05334 1.25331,-0.200004 1.92,-0.44 0.666642,-0.240004 1.159974,-0.480003 1.48,-0.72 l 0.64,-0.48 c 0.10664,-0.08 0.159973,-0.293336 0.16,-0.64 -0.08003,-0.320002 -0.266693,-0.360002 -0.56,-0.12 -1.093358,0.85333 -2.74669,1.279997 -4.96,1.28 -2.000019,-3e-6 -3.466684,-0.373336 -4.4,-1.12 -0.08002,-0.05333 -0.186683,-0.08 -0.32,-0.08 -0.13335,-2e-6 -0.320016,0.09333 -0.56,0.28 m 3.6,-2.08 c 0.186647,0.213333 0.55998,0.06667 1.12,-0.44 0.05331,-0.02667 0.159979,-0.106666 0.32,-0.24 l 0.32,-0.28 c 0.05331,-0.05333 0.159979,-0.119999 0.32,-0.2 0.159978,-0.08 0.293312,-0.133332 0.4,-0.16 0.106645,-0.02667 0.266644,-0.05333 0.48,-0.08 0.213311,-0.02667 0.413311,-0.04 0.6,-0.04 0.426643,10e-7 0.77331,0.05333 1.04,0.16 0.266642,0.106668 0.439976,0.213334 0.52,0.32 0.07998,0.106667 0.173309,0.293334 0.28,0.56 0.133308,0.24 0.239975,0.373333 0.32,0.4 0.07998,0.02667 0.173308,0.02667 0.28,0 0.319974,-0.186667 0.413307,-0.453333 0.28,-0.8 -0.240025,-0.693332 -0.533359,-1.146665 -0.88,-1.36 -0.320025,-0.239998 -0.893357,-0.359998 -1.72,-0.36 -0.693356,2e-6 -1.240022,0.08 -1.64,0.24 -0.453354,0.186668 -1.04002,0.613335 -1.76,1.28 -0.400019,0.32 -0.493353,0.653333 -0.28,1" />
    </g>
  </g>
</svg>
