<?xml version="1.0" encoding="UTF-8" standalone="no"?>
<svg
   xmlns:dc="http://purl.org/dc/elements/1.1/"
   xmlns:cc="http://creativecommons.org/ns#"
   xmlns:rdf="http://www.w3.org/1999/02/22-rdf-syntax-ns#"
   xmlns:svg="http://www.w3.org/2000/svg"
   xmlns="http://www.w3.org/2000/svg"
   xmlns:sodipodi="http://sodipodi.sourceforge.net/DTD/sodipodi-0.dtd"
   xmlns:inkscape="http://www.inkscape.org/namespaces/inkscape"
   version="1.1"
   id="synlogo"
   width="79px"
   height="24px"
   viewBox="0 0 73.67 21.99"
   inkscape:version="0.91 r13725"
   sodipodi:docname="synapse-footer2.svg">
  <metadata
     id="metadata14">
    <rdf:RDF>
      <cc:Work
         rdf:about="">
        <dc:format>image/svg+xml</dc:format>
        <dc:type
           rdf:resource="http://purl.org/dc/dcmitype/StillImage" />
        <dc:title></dc:title>
      </cc:Work>
    </rdf:RDF>
  </metadata>
  <defs
     id="defs12" />
  <sodipodi:namedview
     pagecolor="#ffffff"
     bordercolor="#666666"
     borderopacity="1"
     objecttolerance="10"
     gridtolerance="10"
     guidetolerance="10"
     inkscape:pageopacity="0"
     inkscape:pageshadow="2"
     inkscape:window-width="1858"
     inkscape:window-height="1057"
     id="namedview10"
     showgrid="false"
     inkscape:zoom="4.81"
     inkscape:cx="4.574"
     inkscape:cy="70.21"
     inkscape:window-x="1358"
     inkscape:window-y="-8"
     inkscape:window-maximized="1"
     inkscape:current-layer="_244692544" />
    <g id="logo">
      <path class="fill" id="h-big" style="fill:#2b2a29;fill-rule:nonzero" 
        d="m 11.13,20.09 c 1.16,0 2.23,0.18 3.37,0.31 l 0,0 c 0.65,0 0.75,-0.6 0.85,
         -1.21 0.1,-0.42 0.14,-0.85 0.36,-1.16 0,-0.1 0.11,-0.13 0.17,-0.18 0.1,-0.1 0.14,
         -0.1 0.21,-0.14 0.11,-0.1 0.26,-0.1 0.38,-0.1 0,-0.39 -0.27,-0.55 -0.19,-1.06 l 0,
         -0.2 c 0.19,0 0.52,0.1 0.68,0 0.1,-0.1 0.13,-0.16 0.11,-0.35 -0.1,-0.39 -0.19,
         -0.82 0.1,-1.17 l 0,-0.1 0,0 c 0.51,-0.25 1.15,-0.46 1.22,-1.11 C 18.3,13.31 18.11,
         13 17.93,12.7 17.55,12.06 17.19,11.45 16.94,10.75 17.13,10.14 17.24,9.606 17.27,
         8.968 17.27,6.121 16,3.588 13.65,1.926 12,0.7585 9.915,0.1808 7.71,0.5163 6.54,
         0.6935 5.311,1.083 4.284,1.727 1.61,3.405 1.18,6.724 1.704,9.643 1.849,10.46 2.012,
         11.36 1.961,11.89 1.816,13.4 0.4962,13.95 0.423,15.34 c -0.1359,2.62 3.919,
         6.23 6.033,6.28 0.821,0 1.551,-0.36 2.28,-0.74 l 0,0 c 0.749,-0.39 1.504,-0.79 2.394,
         -0.79 z m 0,0.41 c -0.79,0 -1.504,0.38 -2.21,0.75 l 0,0 C 8.154,21.65 7.375,22.06 6.447,
         22.04 4.086,21.98 -0.1464,18.18 0.0048,15.32 0.0851,13.75 1.407,13.25 1.543,11.85 1.588,
         11.38 1.431,10.5 1.29,9.717 0.7289,6.581 1.229,3.214 4.059,1.373 l 10e-4,0 C 5.142,
         0.6947 6.429,0.2859 7.648,0.1004 9.966,-0.2528 12.15,0.3568 13.89,1.583 c 2.34,1.652 3.92,
         4.509 3.79,7.402 0,0.597 -0.12,1.195 -0.3,1.745 0.25,0.64 0.58,1.2 0.91,1.75 0.21,0.35 0.41,
         0.7 0.6,1.06 -0.1,0.96 -0.63,1.17 -1.41,1.54 -0.16,0.32 0,0.6 0,0.86 0,0.38 -0.1,0.61 -0.32,
         0.74 -0.14,0.1 -0.32,0.12 -0.51,0.12 0,0.38 0.3,0.42 0.17,1 -0.1,0.17 -0.24,0.19 -0.39,
         0.23 -0.2,0.1 -0.3,0.1 -0.42,0.25 -0.17,0.23 -0.23,0.61 -0.29,0.98 -0.12,0.79 -0.25,
         1.58 -1.26,1.56 l 0,0 c -1.09,0 -2.18,-0.32 -3.35,-0.32 z"></path>
      <path class="fill" id="h-inner-1" style="fill:#2b2a29;fill-rule:nonzero" 
        d="m 11.95,15.02 c 0.74,0 1.43,0.12 2.16,0.2 l 0,0 c 0.42,0 0.48,-0.38 0.54,-0.77 0,
         -0.27 0.1,-0.55 0.24,-0.75 0,0 0.1,-0.1 0.11,-0.11 0,0 0.1,-0.1 0.13,-0.1 0.1,0 0.16,
         -0.1 0.24,-0.1 0,-0.25 -0.17,-0.35 -0.12,-0.68 l 0,-0.12 c 0.12,0 0.33,0 0.44,0 0,
         0 0.1,-0.1 0.1,-0.23 0,-0.24 -0.12,-0.52 0,-0.75 l 0,0 0,0 C 16.12,11.45 16.53,11.32 16.58,
         10.9 16.47,10.7 16.36,10.5 16.24,10.31 16.07,9.877 15.83,9.485 15.67,9.036 15.79,
         8.648 15.86,8.305 15.88,7.896 15.88,6.071 15.07,4.448 13.56,3.382 12.5,2.634 11.17,
         2.265 9.757,2.48 9.007,2.593 8.22,2.842 7.561,3.256 5.847,4.331 5.571,6.458 5.907,
         8.33 6,8.85 6.104,9.432 6.072,9.771 5.979,10.73 5.133,11.09 5.086,11.98 5,13.66 7.597,
         15.97 8.953,16 9.479,16 9.947,15.77 10.41,15.53 l 0,0 c 0.48,-0.25 0.97,-0.5 1.54,
         -0.51 z m 0,0.27 c -0.5,0 -0.96,0.24 -1.41,0.48 l 0,0 c -0.5,0.26 -0.998,0.52 -1.592,
         0.5 -1.514,0 -4.227,-2.47 -4.13,-4.3 C 4.87,10.96 5.717,10.64 5.804,9.745 5.832,
         9.441 5.732,8.88 5.642,8.376 5.282,6.366 5.602,4.209 7.417,3.028 l 0,0 C 8.111,
         2.593 8.936,2.332 9.717,2.213 11.2,1.986 12.6,2.377 13.72,3.163 c 1.5,1.058 2.51,
         2.89 2.43,4.745 0,0.382 -0.1,0.763 -0.19,1.12 0.15,0.406 0.37,0.764 0.58,1.122 0.13,
         0.22 0.26,0.44 0.38,0.67 -0.1,0.62 -0.4,0.76 -0.9,0.99 -0.1,0.21 0,0.39 0,0.55 0,
         0.25 -0.1,0.4 -0.21,0.48 -0.1,0.1 -0.2,0.1 -0.33,0.1 0,0.24 0.2,0.26 0.11,0.64 0,
         0.11 -0.15,0.12 -0.25,0.15 -0.13,0 -0.19,0 -0.27,0.16 -0.11,0.14 -0.14,0.38 -0.18,
         0.62 -0.1,0.51 -0.16,1.02 -0.81,1 l 0,0 c -0.71,0 -1.4,-0.2 -2.16,-0.2 z"></path>
      <path class="fill" id="h-inner-2" style="fill:#2b2a29;fill-rule:nonzero" 
        d="m 9.554,18.48 c 0.746,0 1.436,0.12 2.176,0.21 l 0,0 c 0.42,0 0.49,-0.39 0.55,
         -0.78 0,-0.28 0.1,-0.56 0.24,-0.76 0,0 0.1,-0.1 0.11,-0.11 0,0 0.1,-0.1 0.13,
         -0.1 0.1,0 0.17,-0.1 0.24,-0.1 0,-0.25 -0.17,-0.36 -0.12,-0.69 l 0,-0.12 c 0.13,
         0 0.34,0 0.44,0 0.1,0 0.1,-0.1 0.1,-0.23 -0.1,-0.25 -0.13,-0.53 0,-0.76 l 0,0 0,
         0 c 0.33,-0.16 0.75,-0.3 0.8,-0.72 -0.11,-0.2 -0.23,-0.4 -0.35,-0.6 -0.24,-0.41 -0.48,
         -0.8 -0.64,-1.26 0.12,-0.39 0.19,-0.74 0.21,-1.15 C 13.52,9.448 12.7,7.81 11.18,
         6.735 10.11,5.98 8.766,5.605 7.339,5.823 6.581,5.937 5.787,6.19 5.122,6.606 3.393,
         7.692 3.114,9.839 3.453,11.73 c 0.09,0.52 0.2,1.11 0.167,1.45 -0.1,0.98 -0.948,
         1.33 -0.996,2.24 -0.09,1.69 2.535,4.02 3.903,4.05 0.532,0 1.004,-0.23 1.476,
         -0.47 l 0,0 c 0.484,-0.25 0.972,-0.5 1.551,-0.51 z m 10e-4,0.28 c -0.508,0 -0.97,
         0.24 -1.427,0.48 l 0,0 C 7.626,19.5 7.122,19.76 6.521,19.75 4.995,19.71 2.256,
         17.25 2.353,15.4 2.405,14.39 3.261,14.06 3.349,13.16 3.377,12.85 3.276,12.28 3.185,
         11.78 2.822,9.747 3.146,7.569 4.977,6.377 l 0,0 C 5.678,5.939 6.51,5.674 7.298,
         5.553 8.799,5.325 10.21,5.72 11.34,6.513 c 1.51,1.069 2.53,2.918 2.45,4.787 0,
         0.39 -0.1,0.77 -0.19,1.13 0.15,0.41 0.37,0.78 0.58,1.13 0.14,0.23 0.27,0.45 0.39,
         0.69 -0.1,0.62 -0.41,0.76 -0.91,1 -0.1,0.2 0,0.38 0,0.55 0,0.25 -0.1,0.4 -0.21,
         0.48 -0.1,0.1 -0.21,0.1 -0.33,0.1 0,0.25 0.2,0.27 0.11,0.65 0,0.11 -0.16,0.12 -0.26,
         0.15 -0.12,0 -0.19,0.1 -0.27,0.16 -0.1,0.14 -0.14,0.39 -0.18,0.63 -0.1,0.51 -0.16,
         1.02 -0.82,1.01 l 0,0 c -0.71,0 -1.41,-0.21 -2.175,-0.2 z"></path>
      <path class="fill" id="h-inner-3" style="fill:#2b2a29;fill-rule:nonzero" 
        d="m 9.083,15.15 c 0.745,0 1.427,0.12 2.157,0.2 l 0,0 c 0.42,0 0.48,-0.38 0.55,
         -0.77 0,-0.27 0.1,-0.55 0.23,-0.74 0,-0.1 0.1,-0.1 0.11,-0.12 0,0 0.1,-0.1 0.13,
         -0.1 0.1,0 0.17,-0.1 0.24,-0.1 0,-0.24 -0.17,-0.35 -0.12,-0.68 l 0,-0.12 c 0.12,
         0 0.33,0 0.44,0 0.1,0 0.1,-0.1 0.1,-0.23 -0.1,-0.24 -0.12,-0.52 0,-0.74 l 0,0 0,
         0 c 0.33,-0.16 0.73,-0.29 0.78,-0.71 -0.1,-0.2 -0.22,-0.4 -0.34,-0.59 C 13.2,
         10.01 12.97,9.616 12.81,9.167 12.93,8.779 13,8.436 13.01,8.027 13.01,6.202 12.2,
         4.579 10.7,3.513 9.636,2.766 8.303,2.396 6.89,2.611 6.139,2.724 5.353,2.973 4.694,
         3.387 2.979,4.462 2.704,6.59 3.04,8.461 3.13,8.981 3.237,9.563 3.205,9.902 3.115,
         10.87 2.266,11.22 2.219,12.11 c -0.09,1.68 2.511,3.99 3.867,4.02 0.526,0 0.994,
         -0.23 1.462,-0.47 l 0,0 c 0.479,-0.25 0.962,-0.5 1.535,-0.51 z m 0,0.27 c -0.505,
         0 -0.962,0.24 -1.414,0.48 l 0,0 C 7.174,16.16 6.675,16.42 6.08,16.4 4.567,
         16.37 1.854,13.93 1.95,12.1 2.002,11.09 2.849,10.77 2.937,9.876 2.965,9.573 2.865,
         9.011 2.775,8.507 2.415,6.497 2.735,4.34 4.549,3.159 l 0,0 c 0.695,-0.435 1.52,
         -0.696 2.3,-0.815 1.487,-0.227 2.888,0.164 4.001,0.95 1.5,1.058 2.51,2.89 2.43,
         4.745 0,0.382 -0.1,0.763 -0.19,1.12 0.16,0.406 0.37,0.764 0.58,1.121 0.14,
         0.22 0.26,0.45 0.39,0.68 -0.1,0.61 -0.41,0.75 -0.91,0.99 -0.1,0.2 0,0.38 0,
         0.54 0,0.25 -0.1,0.4 -0.21,0.48 -0.1,0.1 -0.2,0.1 -0.32,0.1 0,0.24 0.19,0.27 0.1,
         0.64 0,0.11 -0.15,0.12 -0.25,0.15 -0.12,0 -0.19,0.1 -0.26,0.16 -0.11,0.14 -0.15,
         0.38 -0.19,0.62 -0.1,0.51 -0.16,1.02 -0.81,1 l 0,0 c -0.71,0 -1.4,-0.2 -2.154,-0.2 z"></path>
      <path class="fill" id="h-inner-4" style="fill:#2b2a29;fill-rule:nonzero" 
        d="m 12.03,19.13 c 0.75,0 1.43,0.12 2.16,0.2 l 0,0 c 0.41,0 0.47,-0.38 0.54,
         -0.77 0,-0.28 0.1,-0.55 0.23,-0.75 0,0 0.1,-0.1 0.11,-0.11 0,0 0.1,-0.1 0.13,
         -0.1 0.1,0 0.17,-0.1 0.24,-0.1 0,-0.25 -0.17,-0.35 -0.12,-0.68 l 0,-0.13 c 0.13,
         0 0.33,0 0.44,0 0.1,0 0.1,-0.1 0.1,-0.23 0,-0.25 -0.12,-0.52 0,-0.75 l 0,0 0,
         0 c 0.33,-0.15 0.73,-0.29 0.78,-0.7 -0.1,-0.21 -0.22,-0.4 -0.34,-0.6 -0.24,
         -0.41 -0.47,-0.8 -0.63,-1.25 0.12,-0.39 0.19,-0.73 0.21,-1.14 0,-1.82 -0.81,
         -3.446 -2.32,-4.511 C 12.59,6.741 11.25,6.371 9.841,6.586 9.091,6.7 8.304,
         6.949 7.645,7.362 5.93,8.437 5.655,10.56 5.991,12.44 c 0.09,0.52 0.197,1.1 0.165,
         1.44 -0.09,0.96 -0.939,1.32 -0.986,2.21 -0.09,1.68 2.511,3.99 3.867,4.02 0.526,
         0 0.993,-0.23 1.463,-0.47 l 0,0 c 0.48,-0.25 0.96,-0.51 1.53,-0.51 z m 0,
         0.27 c -0.51,0 -0.96,0.24 -1.42,0.47 l 0,0 c -0.49,0.26 -0.994,0.52 -1.588,
         0.51 -1.514,0 -4.227,-2.47 -4.13,-4.31 0.05,-1 0.899,-1.32 0.986,-2.22 0.03,
         -0.3 -0.07,-0.86 -0.162,-1.37 -0.36,-2.01 -0.04,-4.164 1.775,-5.346 l 0,
         0 C 8.195,6.699 9.02,6.438 9.801,6.319 11.29,6.092 12.69,6.483 13.8,7.269 c 1.5,
         1.058 2.51,2.891 2.43,4.741 0,0.39 -0.1,0.77 -0.19,1.12 0.16,0.41 0.37,0.77 0.58,
         1.12 0.14,0.23 0.26,0.45 0.39,0.68 -0.1,0.62 -0.41,0.75 -0.91,0.99 -0.1,0.21 0,
         0.39 0,0.55 0,0.25 -0.1,0.4 -0.2,0.48 -0.1,0.1 -0.21,0.1 -0.33,0.1 0,0.25 0.19,
         0.27 0.1,0.65 0,0.1 -0.15,0.12 -0.25,0.14 -0.12,0 -0.19,0.1 -0.26,0.16 -0.11,
         0.15 -0.15,0.39 -0.19,0.63 -0.1,0.5 -0.16,1.01 -0.81,1 l 0,0 c -0.7,0 -1.4,
         -0.21 -2.15,-0.2 z"></path>
      <path class="text" id="text" style="fill:#2b2a29" 
        d="m 29.33,19.12 1.01,1.49 c -0.37,0.3 -0.77,0.54 -1.21,0.71 -0.44,0.16 -0.86,
         0.28 -1.27,0.34 -0.47,0.1 -0.94,0.11 -1.41,0.11 -0.66,0 -1.25,-0.1 -1.76,
         -0.28 -0.21,-0.1 -0.43,-0.21 -0.64,-0.36 -0.21,-0.16 -0.4,-0.35 -0.56,
         -0.58 -0.17,-0.23 -0.3,-0.5 -0.39,-0.83 -0.1,-0.32 -0.15,-0.7 -0.15,
         -1.15 l 0,-3.29 c 0,-0.43 0.1,-0.8 0.15,-1.13 0.1,-0.31 0.22,-0.59 0.39,
         -0.81 0.16,-0.23 0.35,-0.42 0.56,-0.57 0.21,-0.15 0.43,-0.26 0.64,-0.35 0.51,
         -0.22 1.1,-0.32 1.76,-0.31 0.47,0 0.94,0.1 1.41,0.16 0.41,0.1 0.83,0.19 1.27,
         0.34 0.44,0.15 0.84,0.37 1.21,0.65 l -1.01,1.51 c -0.29,-0.17 -0.6,-0.29 -0.93,
         -0.39 -0.33,-0.1 -0.65,-0.15 -0.94,-0.2 -0.33,-0.1 -0.67,-0.1 -1.01,-0.1 -0.31,
         0 -0.58,0 -0.8,0.1 -0.21,0.1 -0.39,0.17 -0.55,0.34 -0.16,0.17 -0.24,0.42 -0.24,
         0.76 l 0,3.29 c 0,0.37 0.1,0.64 0.24,0.81 0.16,0.17 0.34,0.29 0.55,0.35 0.22,
         0.1 0.49,0.11 0.8,0.1 0.34,0 0.68,0 1.01,-0.1 0.29,0 0.61,-0.1 0.94,-0.19 0.33,
         -0.1 0.64,-0.23 0.93,-0.44 z m 43.45,0 1.01,1.49 c -0.37,0.3 -0.77,0.54 -1.21,
         0.71 -0.44,0.16 -0.86,0.28 -1.27,0.34 -0.47,0.1 -0.94,0.11 -1.41,0.11 -0.67,
         0 -1.25,-0.1 -1.76,-0.28 -0.22,-0.1 -0.43,-0.21 -0.64,-0.36 -0.21,-0.16 -0.4,
         -0.35 -0.57,-0.58 -0.16,-0.23 -0.29,-0.5 -0.39,-0.83 -0.1,-0.32 -0.14,-0.7 -0.14,
         -1.15 l 0,-3.29 c 0,-0.43 0,-0.8 0.14,-1.13 0.1,-0.31 0.23,-0.59 0.39,-0.81 0.17,
         -0.23 0.36,-0.42 0.57,-0.57 0.21,-0.15 0.42,-0.26 0.64,-0.35 0.51,-0.22 1.09,
         -0.32 1.76,-0.31 0.47,0 0.94,0.1 1.41,0.16 0.41,0.1 0.83,0.19 1.27,0.34 0.44,
         0.15 0.84,0.37 1.21,0.65 l -1.01,1.51 c -0.29,-0.17 -0.61,-0.29 -0.94,-0.39 -0.33,
         -0.1 -0.64,-0.15 -0.93,-0.2 -0.33,-0.1 -0.67,-0.1 -1.01,-0.1 -0.31,0 -0.58,0 -0.81,
         0.1 -0.2,0.1 -0.38,0.17 -0.54,0.34 -0.16,0.17 -0.24,0.42 -0.24,0.76 l 0,3.29 c 0,
         0.37 0.1,0.64 0.24,0.81 0.16,0.17 0.34,0.29 0.54,0.35 0.23,0.1 0.5,0.11 0.81,
         0.1 0.34,0 0.68,0 1.01,-0.1 0.29,0 0.6,-0.1 0.93,-0.19 0.33,-0.1 0.65,-0.23 0.94,
         -0.44 z M 52.71,17.79 c -0.26,0 -0.5,0.1 -0.74,0.12 -0.23,0.1 -0.44,0.14 -0.62,
         0.25 -0.18,0.12 -0.32,0.26 -0.44,0.44 -0.11,0.17 -0.17,0.37 -0.17,0.62 0,0.25 0.1,
         0.45 0.17,0.59 0.12,0.14 0.26,0.24 0.44,0.3 0.18,0.1 0.39,0.1 0.62,0.1 0.24,0 0.48,
         0 0.74,-0.1 0.57,-0.1 1.23,-0.27 1.96,-0.55 l 0,-1.78 c -0.73,-0.1 -1.39,-0.1 -1.96,
         0 z m 1.96,3.97 0,-0.19 c -1.1,0.33 -2.09,0.46 -2.96,0.42 -0.37,0 -0.72,-0.1 -1.07,
         -0.17 -0.35,-0.11 -0.67,-0.27 -0.95,-0.5 -0.28,-0.23 -0.5,-0.53 -0.67,-0.9 -0.16,
         -0.37 -0.25,-0.84 -0.25,-1.41 0,-0.5 0.1,-0.92 0.25,-1.26 0.17,-0.35 0.39,-0.63 0.67,
         -0.86 0.28,-0.23 0.6,-0.41 0.95,-0.55 0.35,-0.13 0.7,-0.23 1.07,-0.3 0.87,-0.13 1.86,
         -0.13 2.96,0 0,-0.35 0,-0.68 -0.15,-0.97 -0.1,-0.25 -0.28,-0.48 -0.52,-0.69 -0.25,
         -0.2 -0.62,-0.3 -1.1,-0.3 -0.5,0 -0.93,0 -1.29,0.12 -0.37,0.1 -0.67,0.18 -0.93,
         0.28 -0.29,0.13 -0.54,0.26 -0.74,0.4 l -0.78,-1.77 c 0.28,-0.2 0.61,-0.36 0.99,
         -0.5 0.33,-0.13 0.72,-0.24 1.17,-0.34 0.46,-0.11 0.98,-0.16 1.58,-0.16 1.29,0 2.23,
         0.34 2.83,1.01 0.61,0.68 0.91,1.65 0.91,2.92 l 0,5.72 -1.97,0 z m -8.84,-9.58 0,
         2.72 c -1.09,-0.21 -2.89,-0.2 -3.93,0 l 0,-2.72 -1.97,0 0,9.54 1.97,0 0,-4.91 c 0,
         -0.66 3.93,-0.66 3.93,0 l 0,4.91 1.97,0 0,-9.54 -1.97,0 z m 16.92,0 c 0.37,0 0.72,
         0.1 1.07,0.22 0.34,0.12 0.65,0.3 0.93,0.55 0.27,0.25 0.49,0.57 0.65,0.98 0.17,
         0.39 0.25,0.9 0.25,1.51 l 0,6.27 -1.95,0 0,-6.63 c 0,-0.24 -0.1,-0.44 -0.16,
         -0.58 -0.11,-0.15 -0.25,-0.26 -0.44,-0.34 -0.18,-0.1 -0.39,-0.12 -0.62,-0.13 -0.23,
         0 -0.46,0 -0.71,0 -0.57,0 -1.22,0.19 -1.94,0.42 l 0,7.24 -1.95,0 0,-9.55 1.95,0 0,
         0.38 c 1.09,-0.31 2.07,-0.43 2.92,-0.36 z M 34.09,21.7 c -0.37,0 -0.73,-0.1 -1.07,
         -0.22 -0.34,-0.12 -0.65,-0.31 -0.93,-0.56 -0.27,-0.25 -0.49,-0.57 -0.66,-0.97 -0.16,
         -0.4 -0.25,-0.91 -0.25,-1.52 l 0,-6.26 1.95,0 0,6.62 c 0,0.24 0.1,0.44 0.16,0.59 0.11,
         0.14 0.26,0.26 0.44,0.33 0.19,0.1 0.39,0.12 0.63,0.13 0.22,0 0.46,0 0.7,0 0.57,
         -0.1 1.22,-0.19 1.95,-0.43 l 0,-7.23 1.95,0 0,9.55 -1.95,0 0,-0.39 c -1.1,0.31 -2.07,
         0.43 -2.92,0.37 z"></path>
    </g>
</svg>
